<?xml version="1.0" encoding="UTF-8"?>
<svg width="562px" height="456px" fill="#57D364" viewBox="0 0 562 456" version="1.1" xmlns="http://www.w3.org/2000/svg" xmlns:xlink="http://www.w3.org/1999/xlink">
    <!-- Generator: Sketch 53.2 (72643) - https://sketchapp.com -->
    <title>Group</title>
    <desc>Created with Sketch.</desc>
    <path d="M64,0 L64,80 L0,80 L0,224 L64,224 L64,384 L288,384 L384,288 L384,0 L64,0 Z M16,208 L16,96 L256,96 L256,208 L16,208 Z M288,361.376 L288,288 L361.376,288 L288,361.376 Z M368,272 L272,272 L272,368 L80,368 L80,224 L272,224 L272,80 L80,80 L80,16 L368,16 L368,272 Z" id="Shape"></path>
    <path d="M90.848,130.864 C90.208,128.4 89.152,126.208 87.68,124.288 C86.208,122.368 84.288,120.816 81.872,119.632 C79.456,118.448 76.512,117.856 72.992,117.856 L48.8,117.856 L48.8,186.4 L62.624,186.4 L62.624,159.04 L70.016,159.04 C73.28,159.04 76.256,158.592 78.944,157.776 C81.632,156.96 83.92,155.696 85.808,154.032 C87.696,152.384 89.168,150.24 90.224,147.616 C91.28,144.992 91.808,141.92 91.808,138.4 C91.808,135.84 91.472,133.312 90.848,130.864 Z M75.44,146.384 C73.76,148.048 71.52,148.896 68.768,148.896 L62.624,148.896 L62.624,128.048 L68.384,128.048 C71.84,128.048 74.304,128.96 75.776,130.736 C77.248,132.528 77.984,135.152 77.984,138.608 C77.984,142.128 77.136,144.72 75.44,146.384 Z" id="Shape"></path>
    <path d="M153.36,137.44 C152.784,133.328 151.696,129.84 150.048,126.928 C148.416,124 146.128,121.776 143.184,120.208 C140.224,118.64 136.368,117.84 131.552,117.84 L108.896,117.84 L108.896,186.384 L130.72,186.384 C135.328,186.384 139.136,185.68 142.144,184.272 C145.152,182.864 147.552,180.736 149.344,177.84 C151.136,174.96 152.4,171.28 153.136,166.848 C153.872,162.4 154.224,157.168 154.224,151.152 C154.224,146.112 153.936,141.536 153.36,137.44 Z M139.952,163.264 C139.68,166.416 139.104,168.944 138.224,170.864 C137.36,172.784 136.192,174.16 134.72,174.992 C133.248,175.824 131.296,176.24 128.864,176.24 L122.72,176.24 L122.72,128.032 L128.56,128.032 C131.184,128.032 133.28,128.544 134.848,129.536 C136.432,130.512 137.6,131.984 138.416,133.936 C139.216,135.888 139.744,138.336 140,141.28 C140.24,144.24 140.384,147.664 140.384,151.568 C140.384,156.24 140.24,160.144 139.952,163.264 Z" id="Shape"></path>
    <polygon id="Path" points="211.232 129.184 211.232 117.856 172.928 117.856 172.928 186.4 186.752 186.4 186.752 156.64 209.792 156.64 209.792 145.312 186.752 145.312 186.752 129.184"></polygon>
    <g id="tick" transform="translate(367.000000, 313.000000)">
        <path d="M192.144272,2.85179564 C188.336826,-0.950598548 182.163865,-0.950598548 178.355656,2.85179564 L61.5447051,119.497216 L16.6444865,74.6610634 C12.83704,70.8586692 6.66407878,70.8590495 2.85587054,74.6610634 C-0.951956846,78.4630773 -0.951956846,84.6272306 2.85587054,88.4296248 L54.6503972,140.149488 C58.4567011,143.951502 64.6342326,143.94884 68.4390131,140.149488 L192.144272,16.6207374 C195.9521,12.8187235 195.951719,6.65418983 192.144272,2.85179564 Z" id="Path"></path>
    </g>
</svg>