<?xml version="1.0" encoding="utf-8"?>
<!-- Generator: Adobe Illustrator 21.1.0, SVG Export Plug-In . SVG Version: 6.00 Build 0)  -->
<svg version="1.1" id="Layer_1" xmlns="http://www.w3.org/2000/svg" xmlns:xlink="http://www.w3.org/1999/xlink" x="0px" y="0px"
	 viewBox="0 0 54 54" style="enable-background:new 0 0 54 54;" xml:space="preserve">
<style type="text/css">
	.st0{fill:none;}
</style>
<g>
	<rect x="-0.2" y="0.1" class="st0" width="53.8" height="53.4"/>
	<path style="fill: #ffffff;" d="M15.9,7.7c3.3-1.9,6.9-2.9,10.8-2.9c3.9,0,7.5,1,10.8,2.9s5.9,4.5,7.8,7.8c1.9,3.3,2.9,6.9,2.9,10.8
		c0,4.7-1.4,8.9-4.1,12.6c-2.7,3.7-6.2,6.3-10.6,7.7c-0.5,0.1-0.9,0-1.1-0.2c-0.2-0.2-0.4-0.5-0.4-0.8c0-0.1,0-0.8,0-2.1
		s0-2.6,0-3.8c0-1.8-0.5-3.1-1.5-4c1.1-0.1,2-0.3,2.9-0.5c0.8-0.2,1.7-0.6,2.6-1.1c0.9-0.5,1.7-1.1,2.3-1.9c0.6-0.7,1.1-1.7,1.5-2.9
		s0.6-2.6,0.6-4.2c0-2.2-0.7-4.1-2.2-5.7c0.7-1.7,0.6-3.6-0.2-5.7c-0.5-0.2-1.3-0.1-2.3,0.3c-1,0.4-1.8,0.8-2.6,1.2L32,15.9
		c-1.7-0.5-3.5-0.7-5.4-0.7c-1.8,0-3.6,0.2-5.4,0.7c-0.3-0.2-0.7-0.5-1.2-0.8c-0.5-0.3-1.3-0.7-2.3-1.1c-1.1-0.4-1.9-0.5-2.4-0.4
		c-0.8,2.1-0.9,4-0.2,5.7C13.7,21,13,22.9,13,25.1c0,1.6,0.2,3,0.6,4.2c0.4,1.2,0.9,2.2,1.5,2.9c0.6,0.7,1.3,1.4,2.2,1.9
		c0.9,0.5,1.8,0.9,2.6,1.1c0.8,0.2,1.8,0.4,2.9,0.5c-0.7,0.7-1.2,1.6-1.4,2.9c-0.4,0.2-0.8,0.3-1.3,0.4c-0.4,0.1-1,0.1-1.6,0.1
		s-1.2-0.2-1.8-0.6c-0.6-0.4-1.1-1-1.5-1.7c-0.4-0.6-0.8-1.1-1.4-1.5c-0.5-0.4-1-0.6-1.4-0.7l-0.6-0.1c-0.4,0-0.7,0-0.8,0.1
		c-0.1,0.1-0.2,0.2-0.1,0.3s0.1,0.3,0.3,0.4c0.1,0.1,0.2,0.2,0.4,0.3l0.2,0.1c0.4,0.2,0.8,0.5,1.2,1.1c0.4,0.5,0.7,1,0.9,1.4
		l0.3,0.6c0.2,0.7,0.7,1.3,1.2,1.7c0.6,0.4,1.2,0.7,1.9,0.8c0.7,0.1,1.3,0.2,1.9,0.2c0.6,0,1.1,0,1.5-0.1l0.6-0.1c0,0.7,0,1.5,0,2.5
		c0,0.9,0,1.4,0,1.5c0,0.3-0.1,0.6-0.4,0.8c-0.2,0.2-0.6,0.3-1.1,0.2c-4.3-1.4-7.8-4-10.6-7.7s-4.1-7.9-4.1-12.6
		c0-3.9,1-7.5,2.9-10.8C10,12.2,12.6,9.6,15.9,7.7z M13.3,35.6c0.1-0.1,0-0.2-0.2-0.3c-0.2-0.1-0.3,0-0.4,0.1
		c-0.1,0.1,0,0.2,0.2,0.3C13.1,35.8,13.3,35.8,13.3,35.6z M14.2,36.6c0.1-0.1,0.1-0.2-0.1-0.4c-0.2-0.2-0.3-0.2-0.4-0.1
		c-0.1,0.1-0.1,0.2,0.1,0.4C13.9,36.7,14.1,36.7,14.2,36.6z M15,37.8c0.2-0.1,0.2-0.3,0-0.5c-0.1-0.2-0.3-0.3-0.5-0.2
		c-0.2,0.1-0.2,0.3,0,0.5S14.9,37.9,15,37.8z M16.2,39c0.1-0.1,0.1-0.3-0.1-0.5c-0.2-0.2-0.4-0.3-0.6-0.1c-0.2,0.1-0.1,0.3,0.1,0.5
		C15.9,39.1,16.1,39.1,16.2,39z M17.8,39.7c0.1-0.2-0.1-0.4-0.4-0.4c-0.3-0.1-0.5,0-0.5,0.2c-0.1,0.2,0,0.3,0.4,0.4
		C17.5,40,17.7,39.9,17.8,39.7z M19.6,39.8c0-0.2-0.2-0.3-0.5-0.3c-0.3,0-0.4,0.1-0.4,0.3c0,0.2,0.2,0.3,0.5,0.3
		C19.4,40.1,19.6,40,19.6,39.8z M21.2,39.5c0-0.2-0.2-0.3-0.5-0.3c-0.3,0.1-0.4,0.2-0.4,0.4c0,0.2,0.2,0.3,0.5,0.2
		C21.1,39.9,21.2,39.7,21.2,39.5z"/>
</g>
</svg>
